<?xml version="1.0" encoding="UTF-8" standalone="no"?>
<!DOCTYPE svg PUBLIC "-//W3C//DTD SVG 1.1//EN" "http://www.w3.org/Graphics/SVG/1.1/DTD/svg11.dtd">
<svg width="100%" height="100%" viewBox="0 0 997 616" version="1.1" xmlns="http://www.w3.org/2000/svg" xmlns:xlink="http://www.w3.org/1999/xlink" xml:space="preserve" xmlns:serif="http://www.serif.com/" style="fill-rule:evenodd;clip-rule:evenodd;stroke-linecap:round;stroke-linejoin:round;stroke-miterlimit:1.5;">
    <g transform="matrix(1,0,0,1,-17.0096,-176.266)">
        <g transform="matrix(1.37318,0,0,0.651352,-118.671,266.751)">
            <path d="M460.714,303.962C568.723,303.962 659.447,376.462 656.413,499.661C653.755,607.584 568.723,695.361 460.714,695.361C352.704,695.361 265.411,607.669 265.015,499.661C264.562,376.312 352.704,303.962 460.714,303.962Z" style="fill:rgb(230,180,121);"/>
        </g>
        <g transform="matrix(1.13987,0,0,0.452185,-3.52951,263.154)">
            <path d="M460.714,303.962C568.723,303.962 659.447,376.462 656.413,499.661C653.755,607.584 568.723,695.361 460.714,695.361C352.704,695.361 265.411,607.669 265.015,499.661C264.562,376.312 352.704,303.962 460.714,303.962Z" style="fill:rgb(230,180,121);stroke:rgb(198,138,83);stroke-width:12.01px;"/>
        </g>
        <g transform="matrix(2.30254,0,0,2.43858,297.3,238.484)">
            <g transform="matrix(1,0,0,1,-4.27007,-2.31605)">
                <path d="M156.203,60.446C157.721,71.444 157.51,79.936 157.568,86.546C157.673,98.04 146.431,99.741 144.169,87.027C142.603,78.238 140.395,67.09 136.969,55.431C126.004,53.328 114.093,52.2 101.626,52.177C106.35,66.783 107.191,77.709 108.149,85.759C109.492,97.034 98.375,99.885 94.733,87.637C91.887,78.073 87.939,65.657 82.23,53.048C69.651,54.223 57.89,56.543 47.418,59.872C52.43,71.723 54.248,80.979 55.871,87.875C58.305,98.193 48.584,102.009 43.966,91.029C40.976,83.914 37.067,75.046 32.108,65.896C12.258,75.456 -0.131,89.47 0.001,106.243C0.25,137.999 45.137,148.243 100.367,147.81C155.593,147.374 200.249,136.428 199.999,104.675C199.846,84.99 182.508,69.373 156.203,60.446Z" style="fill:rgb(167,105,71);fill-rule:nonzero;stroke:rgb(107,54,32);stroke-width:4.39px;stroke-linecap:butt;stroke-miterlimit:2;"/>
            </g>
        </g>
        <g id="SVGRepo_iconCarrier" transform="matrix(1.47456,0,0,1.62795,645.54,189.342)">
            <g>
                <g transform="matrix(0.965926,-0.234432,0.285743,0.965926,47.585,33.0537)">
                    <path d="M193.465,35.623C190.9,43.152 188.169,50.717 185.18,58.289L173.684,53.75C175.116,50.119 176.494,46.476 177.823,42.834C179.054,39.468 179.093,35.826 177.955,32.652C176.305,28.051 174.575,23.521 172.827,19.009L179.62,1.716L175.256,0L168.938,16.082C164.322,19.049 159.691,21.956 155.043,24.757C152.225,26.451 150.051,29.127 148.898,32.28C147.652,35.697 146.368,39.088 145.045,42.447L133.548,37.912C136.141,31.339 138.582,24.591 140.923,17.727L136.453,16.204C134.134,23.014 131.717,29.69 129.156,36.177L128.033,38.988C127.199,41.045 126.352,43.082 125.486,45.1C124.059,48.433 124.08,52.164 125.532,55.501C127.002,58.875 128.414,62.289 129.757,65.751L118.521,60.051C117.124,62.807 115.683,65.508 114.192,68.152C112.5,71.159 112.169,74.73 113.255,78.144C114.358,81.592 115.368,85.092 116.281,88.654L105.882,81.541C104.209,83.993 102.475,86.385 100.683,88.729C98.65,91.39 97.85,94.821 98.444,98.338C99.054,101.886 99.546,105.486 99.927,109.143L90.69,100.575C88.68,102.744 86.602,104.868 84.459,106.945C82.031,109.311 80.689,112.642 80.748,116.239C80.938,127.25 80.102,138.636 78.451,150.156C76.886,151.283 75.312,152.396 73.723,153.489C64.403,159.916 54.704,165.822 44.79,171.368C46.76,169.348 48.453,167.362 49.925,165.41C51.908,162.772 53.489,160.188 54.818,157.627C56.813,153.781 58.237,149.998 59.615,146.084C60.992,142.164 62.32,138.095 64.002,133.556C65.124,130.526 66.165,127.498 67.122,124.486C64.624,126.382 62.064,128.234 59.461,130.054C49.706,136.85 41.81,143.242 35.549,149.42C30.847,154.042 27.063,158.514 24.03,162.735C19.475,169.059 16.619,174.814 14.683,179.395C13.714,181.681 12.972,183.673 12.355,185.243C12.049,186.033 11.773,186.714 11.53,187.261C11.287,187.805 11.072,188.214 10.932,188.431L10.688,188.812L2.065,192.821L4.563,198.287L11.779,194.941L14.145,195.222C14.375,195.248 14.761,195.325 15.254,195.448C16.175,195.682 17.45,196.086 19.002,196.564C21.722,197.391 25.3,198.438 29.757,199.156C36.445,200.232 45.15,200.598 56.028,198.295C66.874,195.963 80.005,191.03 94.85,180.717C98.063,178.468 101.258,176.153 104.42,173.757C100.714,174.273 97.036,174.699 93.385,175.048C86.906,175.657 81.544,175.506 76.339,175.357C72.439,175.245 68.629,175.128 64.583,175.291C61.551,175.409 58.389,175.681 54.984,176.204C51.719,176.705 48.231,177.435 44.395,178.453C55.595,172.313 66.579,165.714 77.135,158.434C78.756,157.319 80.362,156.183 81.962,155.032C93.553,157.021 105.548,158.291 117.988,158.517C122.041,158.591 126.377,156.783 129.71,153.538C132.64,150.691 135.511,147.761 138.305,144.748L129.068,136.177C133.108,135.891 137.183,135.479 141.281,134.933C145.337,134.403 149.413,131.934 152.263,128.202C154.764,124.929 157.18,121.593 159.493,118.207L149.095,111.094C153.043,110.215 157.007,109.222 160.965,108.112C164.888,107.019 168.527,104.038 170.779,100.037C172.757,96.523 174.643,92.986 176.444,89.438L165.21,83.735C168.984,82.402 172.754,80.982 176.514,79.486C180.239,78.007 183.434,74.773 185.172,70.713C186.226,68.26 187.246,65.805 188.239,63.353L189.571,60.022C192.595,52.362 195.35,44.73 197.935,37.145L193.465,35.623Z" style="fill:rgb(167,105,71);"/>
                </g>
                <g transform="matrix(0.965926,-0.234432,0.285743,0.965926,47.585,33.0537)">
                    <path d="M131.008,47.469L131.721,45.789C132.122,44.851 133.193,44.393 134.124,44.779L144.69,49.169C146.458,53.018 148.164,56.918 149.792,60.881C150.084,61.588 150.061,62.418 149.726,63.147C147.968,67.002 146.13,70.81 144.199,74.57C143.701,75.543 142.715,76.144 141.7,76.115C140.68,76.08 139.817,75.425 139.479,74.444C136.954,67.096 134.11,59.993 131.032,53.063C130.25,51.289 130.238,49.26 131.008,47.469Z" style="fill:rgb(230,180,121);"/>
                </g>
                <g transform="matrix(0.965926,-0.234432,0.285743,0.965926,47.585,33.0537)">
                    <path d="M105.455,92.38L106.489,91.013C107.066,90.251 108.18,90.102 108.994,90.698L118.314,97.534C119.144,101.6 119.839,105.738 120.393,109.944C120.495,110.696 120.257,111.48 119.752,112.096C118.796,113.252 117.83,114.402 116.846,115.535C115.07,117.59 113.254,119.61 111.391,121.587C110.644,122.38 109.534,122.689 108.566,122.371C107.599,122.054 106.951,121.181 106.897,120.151C106.498,112.422 105.601,104.877 104.248,97.582C103.902,95.711 104.339,93.839 105.455,92.38Z" style="fill:rgb(230,180,121);"/>
                </g>
                <g transform="matrix(0.965926,-0.234432,0.285743,0.965926,47.585,33.0537)">
                    <path d="M119.427,71.102L120.28,69.574C120.757,68.71 121.854,68.395 122.741,68.873L132.905,74.375C134.264,78.321 135.523,82.333 136.669,86.422C136.879,87.155 136.755,87.965 136.346,88.649C135.563,89.934 134.775,91.213 133.965,92.48C132.509,94.772 131.008,97.039 129.455,99.271C128.836,100.169 127.78,100.633 126.78,100.464C125.777,100.295 125.007,99.525 124.8,98.515C123.261,90.927 121.267,83.595 118.922,76.505C118.32,74.688 118.505,72.739 119.427,71.102Z" style="fill:rgb(230,180,121);"/>
                </g>
                <g transform="matrix(0.965926,-0.234432,0.285743,0.965926,47.585,33.0537)">
                    <path d="M154.542,34.341C155.159,32.652 156.322,31.227 157.82,30.334C160.645,28.649 163.46,26.932 166.27,25.181C166.734,24.892 167.276,24.82 167.767,24.986C168.256,25.152 168.645,25.536 168.837,26.051C170.003,29.159 171.145,32.286 172.256,35.439C172.847,37.11 172.82,39.016 172.18,40.773C170.705,44.816 169.175,48.845 167.572,52.863C164.243,54.287 160.906,55.655 157.57,56.963C156.312,57.455 154.98,56.883 154.454,55.65C153.059,52.364 151.616,49.12 150.134,45.909C151.659,42.087 153.124,38.227 154.542,34.341Z" style="fill:rgb(230,180,121);"/>
                </g>
                <g transform="matrix(0.965926,-0.234432,0.285743,0.965926,47.585,33.0537)">
                    <path d="M87.375,141.529C86.455,141.088 85.928,140.135 86.015,139.105C86.666,131.371 86.895,123.728 86.655,116.268C86.596,114.359 87.317,112.548 88.645,111.257L89.878,110.047C90.565,109.369 91.695,109.386 92.413,110.095L100.624,118.228C100.839,122.374 100.915,126.578 100.852,130.827C100.839,131.583 100.497,132.332 99.906,132.864C98.793,133.875 97.67,134.876 96.535,135.863C94.485,137.652 92.4,139.406 90.286,141.12C89.435,141.807 88.295,141.97 87.375,141.529Z" style="fill:rgb(230,180,121);"/>
                </g>
                <g transform="matrix(0.965926,-0.234432,0.285743,0.965926,47.585,33.0537)">
                    <path d="M125.524,149.229C123.807,150.898 121.576,151.853 119.448,151.848C111.128,151.836 102.998,151.338 95.056,150.445C93.996,150.322 93.189,149.592 92.983,148.591C92.777,147.584 93.202,146.488 94.073,145.787C96.242,144.03 98.379,142.23 100.484,140.393C101.649,139.377 102.804,138.35 103.948,137.311C104.554,136.762 105.336,136.464 106.11,136.498C110.428,136.687 114.795,136.736 119.214,136.644L128.723,146.061L125.524,149.229Z" style="fill:rgb(230,180,121);"/>
                </g>
                <g transform="matrix(0.965926,-0.234432,0.285743,0.965926,47.585,33.0537)">
                    <path d="M148.846,122.761L147.49,124.549C146.025,126.466 143.939,127.754 141.823,128.071C133.543,129.305 125.373,130.006 117.356,130.195C116.286,130.22 115.391,129.602 115.057,128.629C114.72,127.663 114.999,126.521 115.769,125.702C117.689,123.664 119.559,121.582 121.393,119.464C122.408,118.294 123.402,117.112 124.389,115.916C124.909,115.284 125.647,114.883 126.414,114.8C130.718,114.359 135.055,113.764 139.413,113.012L148.732,119.85C149.545,120.446 149.605,121.754 148.846,122.761Z" style="fill:rgb(230,180,121);"/>
                </g>
                <g transform="matrix(0.965926,-0.234432,0.285743,0.965926,47.585,33.0537)">
                    <path d="M166.081,92.334C166.971,92.815 167.214,94.08 166.615,95.164L165.541,97.088C164.38,99.154 162.516,100.696 160.478,101.291C152.5,103.637 144.53,105.532 136.628,106.905C135.573,107.088 134.599,106.61 134.121,105.697C133.643,104.784 133.756,103.62 134.393,102.696C135.991,100.398 137.538,98.063 139.037,95.702C139.87,94.4 140.679,93.084 141.484,91.762C141.905,91.058 142.578,90.557 143.325,90.368C147.516,89.324 151.72,88.139 155.919,86.831L166.081,92.334Z" style="fill:rgb(230,180,121);"/>
                </g>
                <g transform="matrix(0.965926,-0.234432,0.285743,0.965926,47.585,33.0537)">
                    <path d="M180.487,66.378L179.65,68.343C178.745,70.453 177.101,72.129 175.159,72.919C167.578,76.009 159.946,78.796 152.319,81.18C151.305,81.501 150.269,81.154 149.677,80.319C149.08,79.48 149.035,78.313 149.543,77.314C151.522,73.468 153.399,69.574 155.193,65.642C155.534,64.895 156.143,64.317 156.871,64.048C160.946,62.557 165.011,60.966 169.069,59.295L179.638,63.685C180.567,64.071 180.954,65.276 180.487,66.378Z" style="fill:rgb(230,180,121);"/>
                </g>
            </g>
        </g>
        <g id="SVGRepo_iconCarrier1" serif:id="SVGRepo_iconCarrier" transform="matrix(-1.47456,0,0,1.62795,384.748,189.342)">
            <g>
                <g transform="matrix(0.965926,-0.234432,0.285743,0.965926,47.585,33.0537)">
                    <path d="M193.465,35.623C190.9,43.152 188.169,50.717 185.18,58.289L173.684,53.75C175.116,50.119 176.494,46.476 177.823,42.834C179.054,39.468 179.093,35.826 177.955,32.652C176.305,28.051 174.575,23.521 172.827,19.009L179.62,1.716L175.256,0L168.938,16.082C164.322,19.049 159.691,21.956 155.043,24.757C152.225,26.451 150.051,29.127 148.898,32.28C147.652,35.697 146.368,39.088 145.045,42.447L133.548,37.912C136.141,31.339 138.582,24.591 140.923,17.727L136.453,16.204C134.134,23.014 131.717,29.69 129.156,36.177L128.033,38.988C127.199,41.045 126.352,43.082 125.486,45.1C124.059,48.433 124.08,52.164 125.532,55.501C127.002,58.875 128.414,62.289 129.757,65.751L118.521,60.051C117.124,62.807 115.683,65.508 114.192,68.152C112.5,71.159 112.169,74.73 113.255,78.144C114.358,81.592 115.368,85.092 116.281,88.654L105.882,81.541C104.209,83.993 102.475,86.385 100.683,88.729C98.65,91.39 97.85,94.821 98.444,98.338C99.054,101.886 99.546,105.486 99.927,109.143L90.69,100.575C88.68,102.744 86.602,104.868 84.459,106.945C82.031,109.311 80.689,112.642 80.748,116.239C80.938,127.25 80.102,138.636 78.451,150.156C76.886,151.283 75.312,152.396 73.723,153.489C64.403,159.916 54.704,165.822 44.79,171.368C46.76,169.348 48.453,167.362 49.925,165.41C51.908,162.772 53.489,160.188 54.818,157.627C56.813,153.781 58.237,149.998 59.615,146.084C60.992,142.164 62.32,138.095 64.002,133.556C65.124,130.526 66.165,127.498 67.122,124.486C64.624,126.382 62.064,128.234 59.461,130.054C49.706,136.85 41.81,143.242 35.549,149.42C30.847,154.042 27.063,158.514 24.03,162.735C19.475,169.059 16.619,174.814 14.683,179.395C13.714,181.681 12.972,183.673 12.355,185.243C12.049,186.033 11.773,186.714 11.53,187.261C11.287,187.805 11.072,188.214 10.932,188.431L10.688,188.812L2.065,192.821L4.563,198.287L11.779,194.941L14.145,195.222C14.375,195.248 14.761,195.325 15.254,195.448C16.175,195.682 17.45,196.086 19.002,196.564C21.722,197.391 25.3,198.438 29.757,199.156C36.445,200.232 45.15,200.598 56.028,198.295C66.874,195.963 80.005,191.03 94.85,180.717C98.063,178.468 101.258,176.153 104.42,173.757C100.714,174.273 97.036,174.699 93.385,175.048C86.906,175.657 81.544,175.506 76.339,175.357C72.439,175.245 68.629,175.128 64.583,175.291C61.551,175.409 58.389,175.681 54.984,176.204C51.719,176.705 48.231,177.435 44.395,178.453C55.595,172.313 66.579,165.714 77.135,158.434C78.756,157.319 80.362,156.183 81.962,155.032C93.553,157.021 105.548,158.291 117.988,158.517C122.041,158.591 126.377,156.783 129.71,153.538C132.64,150.691 135.511,147.761 138.305,144.748L129.068,136.177C133.108,135.891 137.183,135.479 141.281,134.933C145.337,134.403 149.413,131.934 152.263,128.202C154.764,124.929 157.18,121.593 159.493,118.207L149.095,111.094C153.043,110.215 157.007,109.222 160.965,108.112C164.888,107.019 168.527,104.038 170.779,100.037C172.757,96.523 174.643,92.986 176.444,89.438L165.21,83.735C168.984,82.402 172.754,80.982 176.514,79.486C180.239,78.007 183.434,74.773 185.172,70.713C186.226,68.26 187.246,65.805 188.239,63.353L189.571,60.022C192.595,52.362 195.35,44.73 197.935,37.145L193.465,35.623Z" style="fill:rgb(167,105,71);"/>
                </g>
                <g transform="matrix(0.965926,-0.234432,0.285743,0.965926,47.585,33.0537)">
                    <path d="M131.008,47.469L131.721,45.789C132.122,44.851 133.193,44.393 134.124,44.779L144.69,49.169C146.458,53.018 148.164,56.918 149.792,60.881C150.084,61.588 150.061,62.418 149.726,63.147C147.968,67.002 146.13,70.81 144.199,74.57C143.701,75.543 142.715,76.144 141.7,76.115C140.68,76.08 139.817,75.425 139.479,74.444C136.954,67.096 134.11,59.993 131.032,53.063C130.25,51.289 130.238,49.26 131.008,47.469Z" style="fill:rgb(230,180,121);"/>
                </g>
                <g transform="matrix(0.965926,-0.234432,0.285743,0.965926,47.585,33.0537)">
                    <path d="M105.455,92.38L106.489,91.013C107.066,90.251 108.18,90.102 108.994,90.698L118.314,97.534C119.144,101.6 119.839,105.738 120.393,109.944C120.495,110.696 120.257,111.48 119.752,112.096C118.796,113.252 117.83,114.402 116.846,115.535C115.07,117.59 113.254,119.61 111.391,121.587C110.644,122.38 109.534,122.689 108.566,122.371C107.599,122.054 106.951,121.181 106.897,120.151C106.498,112.422 105.601,104.877 104.248,97.582C103.902,95.711 104.339,93.839 105.455,92.38Z" style="fill:rgb(230,180,121);"/>
                </g>
                <g transform="matrix(0.965926,-0.234432,0.285743,0.965926,47.585,33.0537)">
                    <path d="M119.427,71.102L120.28,69.574C120.757,68.71 121.854,68.395 122.741,68.873L132.905,74.375C134.264,78.321 135.523,82.333 136.669,86.422C136.879,87.155 136.755,87.965 136.346,88.649C135.563,89.934 134.775,91.213 133.965,92.48C132.509,94.772 131.008,97.039 129.455,99.271C128.836,100.169 127.78,100.633 126.78,100.464C125.777,100.295 125.007,99.525 124.8,98.515C123.261,90.927 121.267,83.595 118.922,76.505C118.32,74.688 118.505,72.739 119.427,71.102Z" style="fill:rgb(230,180,121);"/>
                </g>
                <g transform="matrix(0.965926,-0.234432,0.285743,0.965926,47.585,33.0537)">
                    <path d="M154.542,34.341C155.159,32.652 156.322,31.227 157.82,30.334C160.645,28.649 163.46,26.932 166.27,25.181C166.734,24.892 167.276,24.82 167.767,24.986C168.256,25.152 168.645,25.536 168.837,26.051C170.003,29.159 171.145,32.286 172.256,35.439C172.847,37.11 172.82,39.016 172.18,40.773C170.705,44.816 169.175,48.845 167.572,52.863C164.243,54.287 160.906,55.655 157.57,56.963C156.312,57.455 154.98,56.883 154.454,55.65C153.059,52.364 151.616,49.12 150.134,45.909C151.659,42.087 153.124,38.227 154.542,34.341Z" style="fill:rgb(230,180,121);"/>
                </g>
                <g transform="matrix(0.965926,-0.234432,0.285743,0.965926,47.585,33.0537)">
                    <path d="M87.375,141.529C86.455,141.088 85.928,140.135 86.015,139.105C86.666,131.371 86.895,123.728 86.655,116.268C86.596,114.359 87.317,112.548 88.645,111.257L89.878,110.047C90.565,109.369 91.695,109.386 92.413,110.095L100.624,118.228C100.839,122.374 100.915,126.578 100.852,130.827C100.839,131.583 100.497,132.332 99.906,132.864C98.793,133.875 97.67,134.876 96.535,135.863C94.485,137.652 92.4,139.406 90.286,141.12C89.435,141.807 88.295,141.97 87.375,141.529Z" style="fill:rgb(230,180,121);"/>
                </g>
                <g transform="matrix(0.965926,-0.234432,0.285743,0.965926,47.585,33.0537)">
                    <path d="M125.524,149.229C123.807,150.898 121.576,151.853 119.448,151.848C111.128,151.836 102.998,151.338 95.056,150.445C93.996,150.322 93.189,149.592 92.983,148.591C92.777,147.584 93.202,146.488 94.073,145.787C96.242,144.03 98.379,142.23 100.484,140.393C101.649,139.377 102.804,138.35 103.948,137.311C104.554,136.762 105.336,136.464 106.11,136.498C110.428,136.687 114.795,136.736 119.214,136.644L128.723,146.061L125.524,149.229Z" style="fill:rgb(230,180,121);"/>
                </g>
                <g transform="matrix(0.965926,-0.234432,0.285743,0.965926,47.585,33.0537)">
                    <path d="M148.846,122.761L147.49,124.549C146.025,126.466 143.939,127.754 141.823,128.071C133.543,129.305 125.373,130.006 117.356,130.195C116.286,130.22 115.391,129.602 115.057,128.629C114.72,127.663 114.999,126.521 115.769,125.702C117.689,123.664 119.559,121.582 121.393,119.464C122.408,118.294 123.402,117.112 124.389,115.916C124.909,115.284 125.647,114.883 126.414,114.8C130.718,114.359 135.055,113.764 139.413,113.012L148.732,119.85C149.545,120.446 149.605,121.754 148.846,122.761Z" style="fill:rgb(230,180,121);"/>
                </g>
                <g transform="matrix(0.965926,-0.234432,0.285743,0.965926,47.585,33.0537)">
                    <path d="M166.081,92.334C166.971,92.815 167.214,94.08 166.615,95.164L165.541,97.088C164.38,99.154 162.516,100.696 160.478,101.291C152.5,103.637 144.53,105.532 136.628,106.905C135.573,107.088 134.599,106.61 134.121,105.697C133.643,104.784 133.756,103.62 134.393,102.696C135.991,100.398 137.538,98.063 139.037,95.702C139.87,94.4 140.679,93.084 141.484,91.762C141.905,91.058 142.578,90.557 143.325,90.368C147.516,89.324 151.72,88.139 155.919,86.831L166.081,92.334Z" style="fill:rgb(230,180,121);"/>
                </g>
                <g transform="matrix(0.965926,-0.234432,0.285743,0.965926,47.585,33.0537)">
                    <path d="M180.487,66.378L179.65,68.343C178.745,70.453 177.101,72.129 175.159,72.919C167.578,76.009 159.946,78.796 152.319,81.18C151.305,81.501 150.269,81.154 149.677,80.319C149.08,79.48 149.035,78.313 149.543,77.314C151.522,73.468 153.399,69.574 155.193,65.642C155.534,64.895 156.143,64.317 156.871,64.048C160.946,62.557 165.011,60.966 169.069,59.295L179.638,63.685C180.567,64.071 180.954,65.276 180.487,66.378Z" style="fill:rgb(230,180,121);"/>
                </g>
            </g>
        </g>
        <g transform="matrix(0.843538,0,0,0.826439,52.5483,211.72)">
            <path d="M1036.28,578.169L959.872,514.327L1017.88,431.731L882.377,449.648L882.476,450.433L838.097,456.017C869.966,456.852 905.77,458.988 906.299,459.007C918.693,456.644 931.036,464.197 934.184,476.347L934.322,476.875L934.35,477.42C936.251,515.145 937.58,553.306 938.361,591.353L947.321,590.225L1036.28,578.169Z" style="fill:rgb(214,89,81);fill-rule:nonzero;"/>
        </g>
        <g transform="matrix(0.843538,0,0,0.826439,52.5483,211.72)">
            <path d="M801.664,464.51C799.406,467.319 798.236,470.996 798.72,474.845L799.463,480.75C824.609,476.602 849.641,471.751 874.537,466.272C850.528,465.5 818.789,464.581 801.664,464.51Z" style="fill:rgb(129,28,20);fill-rule:nonzero;"/>
        </g>
        <g transform="matrix(0.843538,0,0,0.826439,52.5483,211.72)">
            <path d="M1058.13,584.469L972.227,512.696L1037.4,419.895L872.217,442.477L809.511,450.367C796.964,451.949 788.04,463.443 789.617,475.991L790.396,482.181C636.218,506.616 478.163,506.133 324.145,480.669L324.733,475.992C326.313,463.444 317.388,451.95 304.836,450.368L242.238,441.783L84.543,419.815L149.771,512.697L63.871,584.47L173.434,599.315L191.975,602.059C192.415,613.754 192.91,625.437 193.479,637.087C193.769,643.017 193.561,648.355 196.733,653.344C200.522,659.303 206.886,663.62 214.19,665.189C328.314,689.744 445.324,702.188 562.074,702.187C563.516,702.187 564.972,702.185 566.414,702.182C684.616,701.87 803.069,688.793 918.483,663.316C925.788,661.707 932.132,657.354 935.889,651.371C939.062,646.321 939.073,640.417 939.024,634.951C938.921,623.521 938.741,612.054 938.534,600.578L948.508,599.323L1058.13,584.469ZM928.326,635.603C928.326,635.603 928.58,642.883 926.825,645.677C924.582,649.247 920.703,651.867 916.178,652.863C801.508,678.175 683.821,691.167 566.385,691.477C448.96,691.785 331.227,679.422 216.438,654.723C211.915,653.752 208.025,651.156 205.764,647.6C203.994,644.816 204.203,637.248 204.203,637.248C201.609,584.454 200.34,531.027 200.431,478.435C202.47,471.873 209.522,467.951 216.459,469.638C329.516,497.129 445.76,510.873 562.045,510.87C678.301,510.867 794.6,497.122 907.624,469.638C914.597,467.944 921.691,471.924 923.687,478.552C926.299,530.559 927.86,583.395 928.326,635.603ZM162.126,514.327L104.18,431.812L231.971,449.614L276.255,456.017C244.387,456.852 208.588,459.107 208.059,459.126C199.464,461.001 192.203,467.434 189.898,476.349L189.729,477.003L189.728,477.678C189.653,515.774 190.3,554.31 191.635,592.733L174.72,590.229L85.716,578.168L162.126,514.327ZM312.687,464.51C314.946,467.319 315.095,479.107 315.095,479.107C292.739,475.265 270.474,470.897 248.319,466.002C270.897,465.3 297.52,464.573 312.687,464.51ZM798.72,474.845C798.236,470.996 799.406,467.319 801.664,464.51C818.79,464.58 850.529,465.499 874.537,466.272C849.641,471.751 824.61,476.601 799.463,480.75L798.72,474.845ZM934.348,477.419L934.32,476.874L934.182,476.346C931.034,464.196 918.692,456.643 906.297,459.006C905.768,458.987 869.964,456.85 838.095,456.016L882.474,450.432L1017.88,431.73L959.87,514.326L1036.28,578.168L947.317,590.223L938.357,591.351C937.577,553.305 936.248,515.144 934.348,477.419Z" style="fill:rgb(107,54,32);fill-rule:nonzero;"/>
        </g>
        <g transform="matrix(0.843538,0,0,0.826439,52.5483,211.72)">
            <path d="M248.32,466.003C270.474,470.899 292.74,475.266 315.096,479.108L315.632,474.846C316.116,470.997 314.947,467.32 312.688,464.511C297.521,464.573 270.897,465.3 248.32,466.003Z" style="fill:rgb(129,28,20);fill-rule:nonzero;"/>
        </g>
        <g transform="matrix(0.843538,0,0,0.826439,52.5483,211.72)">
            <path d="M191.635,592.734C190.3,554.311 189.654,515.775 189.728,477.679L189.729,477.004L189.898,476.35C192.202,467.435 199.463,461.002 208.059,459.127C208.588,459.108 244.387,456.852 276.255,456.018L231.971,449.615L104.18,431.812L162.126,514.327L85.717,578.169L174.721,590.23L191.635,592.734Z" style="fill:rgb(214,89,81);fill-rule:nonzero;"/>
        </g>
        <g transform="matrix(0.843538,0,0,0.826439,52.5483,211.72)">
            <path d="M923.687,478.551C921.691,471.923 914.597,467.943 907.624,469.637C794.599,497.121 678.301,510.866 562.045,510.869C445.761,510.872 329.516,497.129 216.459,469.637C209.522,467.95 202.47,471.872 200.431,478.434C200.34,531.026 201.609,584.454 204.203,637.247C204.203,637.247 203.994,644.815 205.764,647.599C208.025,651.155 211.915,653.751 216.438,654.722C331.227,679.421 448.961,691.784 566.385,691.476C683.82,691.166 801.507,678.174 916.178,652.862C920.703,651.865 924.583,649.245 926.825,645.676C928.58,642.882 928.326,635.602 928.326,635.602C927.86,583.395 926.299,530.559 923.687,478.551ZM552.868,534.901C519.209,534.901 485.731,533.635 452.63,531.1C382.518,525.735 313.29,514.613 246.871,498.039L248.721,490.62C314.726,507.09 383.527,518.145 453.214,523.476C522.662,528.795 593.815,528.498 664.697,522.597C729.109,517.237 793.957,507.186 857.444,492.726L859.141,500.181C795.307,514.721 730.1,524.825 665.333,530.216C627.827,533.339 590.237,534.901 552.868,534.901Z" style="fill:rgb(214,89,81);fill-rule:nonzero;"/>
        </g>
        <g transform="matrix(0.843538,0,0,0.826439,52.5483,211.72)">
            <g transform="matrix(0.816901,0,0,0.816901,102.329,222.344)">
                <path d="M318.641,522.162C315.154,521.549 305.916,499.213 306.316,496.846L323.322,396.085C323.951,392.358 327.375,389.891 331.025,390.533C334.507,391.145 343.767,413.382 343.351,415.848L329.938,495.321L354.123,499.574C360.523,500.004 366.364,521.829 365.966,524.19C365.412,527.469 362.16,529.814 358.947,529.249L318.641,522.162ZM402.754,536.905C378.558,534.448 365.796,516.021 369.464,480.653L371.101,466.991C373.835,444.171 384.75,434.608 402.816,435.293C428.154,436.254 435.546,473.937 433.236,490.578L432.319,498.235C431.959,501.237 429.483,503.214 426.541,502.847L389.033,498.165L388.763,500.417C388.604,501.749 388.507,503.028 388.471,504.253C391.179,506.294 394.629,507.565 398.724,508.076C402.842,508.59 408.816,508.574 413.463,507.173C415.069,506.664 418.229,505.961 421.476,511.864C424.501,517.363 427.686,529.429 427.533,530.703C427.281,532.805 425.871,534.61 423.998,535.29C418.82,537.387 410.422,537.684 402.754,536.905ZM394.357,471.265L413.448,473.648L413.79,470.796C414.004,469.012 414.142,467.333 414.203,465.756C412.561,464.867 410.615,464.288 408.353,464.006C401.899,463.2 397.335,465.657 394.357,471.265ZM471.165,543.398C450.699,543.253 433.789,523.046 435.896,488.631L436.821,474.899C438.365,451.963 448.778,440.829 466.843,441.529C497.279,442.708 499.882,485.308 499.196,495.486L498.678,503.181C498.475,506.199 496.105,508.307 493.148,508.1L455.45,505.455L455.298,507.719C455.233,508.678 455.199,509.609 455.196,510.51C458.143,512.811 461.968,514.11 466.54,514.431C470.679,514.721 476.643,514.381 481.211,512.731C482.47,512.255 486.173,511.853 488.899,516.23C489.693,517.505 495.666,534.691 495.587,535.863C495.444,537.976 494.13,539.855 492.295,540.635C487.233,543.009 478.871,543.453 471.165,543.398ZM459.582,477.86L479.454,479.254L479.647,476.387C479.746,474.92 479.798,473.526 479.802,472.203C477.93,471.115 475.659,470.487 472.968,470.298C466.65,469.855 462.284,472.404 459.582,477.86ZM509.759,474.205C507.164,473.751 489.467,447.498 503.946,445.491L510.464,445.659L510.928,426.91C511.017,423.281 513.904,420.703 517.458,420.572C526.115,420.252 530.517,446.175 530.517,446.175L536.092,446.319C544.744,444.915 544,474.892 541.038,474.815L529.81,474.78L528.775,516.676C529.762,516.882 530.874,516.993 532.121,517.025C533.01,517.048 534.643,516.938 535.384,516.957C538.647,516.89 548.104,538.276 548.054,540.308C547.979,543.332 545.697,545.694 542.871,546.075C541.238,546.185 539.309,546.286 537.531,546.241C525.119,545.921 508.897,509.093 509.078,501.755L509.759,474.205ZM599.098,544.28C595.397,544.445 585.34,522.187 585.261,520.323L580.915,418.174C580.754,414.396 583.584,411.142 587.288,411.079C596.93,410.915 601.043,433.095 601.125,435.036L604.479,513.87L632.546,512.626C640.525,512.401 645.684,534.091 645.765,536.005C645.907,539.329 643.216,542.325 639.959,542.469L601.467,544.175L601.57,543.111L599.098,544.28ZM681.847,540.826C650.236,542.897 646.445,515.44 643.548,490.695L642.366,477.136C640.303,453.483 649.898,440.649 667.631,439.308C702.46,436.673 705.427,481.954 706.079,489.426L707.261,502.985C709.323,526.638 699.889,539.644 681.847,540.826ZM663.155,508.9C665.963,511.409 669.574,512.474 673.976,512.075C684.456,511.123 689.086,502.806 687.747,487.439L686.433,472.373C686.399,471.989 686.363,471.609 686.324,471.234C683.516,468.725 679.905,467.659 675.503,468.059C665.023,469.011 660.392,477.328 661.732,492.695L663.046,507.761C663.079,508.145 663.116,508.525 663.155,508.9ZM720.908,469.221C717.679,469.675 708.074,448.707 707.842,446.989C707.559,444.891 708.49,442.928 709.817,441.672C714.155,437.245 720.978,433.487 731.239,431.94C768.291,426.354 768.114,469.856 769.092,477.099L775.264,522.798C775.749,526.394 773.345,529.634 769.822,530.129C766.299,530.625 763.125,528.171 762.639,524.575L762.39,522.726C762.134,522.492 761.897,522.236 761.681,521.96C758.469,528.271 752.835,532.835 744.279,533.723C720.751,536.166 714.88,514.995 712.424,496.423C710.365,480.848 718.48,470.379 739.032,467.487L750.188,465.918L749.881,463.639C747.015,461.596 742.961,460.927 737.102,461.751C730.496,462.681 726.436,465.847 723.009,468.162C722.483,468.694 721.789,469.097 720.908,469.221ZM731.946,504.704C733.681,505.241 735.771,505.353 738.264,505.002C743.849,504.217 749.735,501.349 752.059,494.916L746.621,495.681C737.458,496.97 733.114,499.512 731.946,504.704ZM780.891,456.087C776.565,454.898 769.324,451.786 767.804,434.096C767.532,430.932 769.279,427.982 772.196,427.443L775.695,426.797L774.19,418.313C771.524,403.281 776.158,391.204 793.656,387.97C794.822,387.755 795.992,387.787 797.062,387.648C804.108,386.734 809.168,408.209 809.472,409.921C810.053,413.195 808.381,415.656 805.637,416.317C804.643,416.654 803.476,416.87 802.018,417.139C797.689,417.939 794.997,419.98 793.792,423.452L800.338,422.242C803.254,421.703 806.182,423.775 806.736,426.901C806.866,427.63 813.345,442.791 813.622,444.353C814.177,447.479 812.12,450.318 809.204,450.857L796.956,453.121L808.256,516.821C808.889,520.393 806.654,523.966 803.121,524.379C797.237,525.067 789.675,510.463 788.975,501.659L780.891,456.087Z" style="fill:rgb(107,54,32);stroke:rgb(107,54,32);stroke-width:24.43px;stroke-miterlimit:2;"/>
            </g>
        </g>
        <g transform="matrix(0.843538,0,0,0.826439,52.5483,211.72)">
            <g transform="matrix(0.816901,0,0,0.816901,102.329,222.344)">
                <path d="M306.316,496.846L323.322,396.085C323.951,392.358 327.375,389.891 331.025,390.533C334.676,391.175 337.094,394.669 336.465,398.396L320.389,493.642L354.123,499.574C357.336,500.139 359.658,503.31 359.079,506.738C358.526,510.017 355.273,512.361 352.061,511.796L314.092,505.12L314.414,504.102L311.755,504.709C308.104,504.067 305.712,500.424 306.316,496.846ZM417.111,517.838C411.934,519.935 403.517,520.408 395.868,519.453C376.893,517.085 366.64,504.224 369.464,480.653L371.101,466.991C373.835,444.171 384.871,433.053 402.816,435.293C420.761,437.533 429.174,449.555 426.35,473.125L425.433,480.782C425.073,483.785 422.597,485.761 419.655,485.394L382.147,480.713L381.877,482.964C380.042,498.278 386.516,506.553 398.724,508.076C402.842,508.59 408.816,508.574 413.463,507.173C416.566,506.189 421.258,508.146 420.647,513.251C420.395,515.353 418.984,517.158 417.111,517.838ZM383.694,467.801L383.442,469.903L413.448,473.648L413.79,470.796C415.625,455.482 411.91,447.857 401.467,446.553C391.024,445.25 385.529,452.488 383.694,467.801ZM485.408,523.183C480.347,525.557 471.967,526.485 464.279,525.946C445.208,524.608 434.301,512.321 435.896,488.631L436.821,474.899C438.365,451.963 448.807,440.264 466.843,441.529C484.879,442.794 493.905,454.343 492.31,478.033L491.792,485.729C491.589,488.747 489.219,490.855 486.262,490.647L448.564,488.003L448.411,490.266C447.375,505.658 454.269,513.57 466.54,514.431C470.679,514.721 476.643,514.381 481.211,512.731C484.259,511.58 489.046,513.28 488.7,518.411C488.558,520.523 487.243,522.402 485.408,523.183ZM449.438,475.026L449.295,477.139L479.454,479.254L479.647,476.387C480.683,460.996 476.578,453.582 466.081,452.846C455.585,452.11 450.474,459.635 449.438,475.026ZM503.946,445.491L510.464,445.659L510.928,426.91C511.017,423.281 513.903,420.481 517.458,420.572C521.014,420.664 523.757,423.609 523.667,427.238L523.204,445.987L536.092,446.319C539.055,446.395 541.51,449.03 541.431,452.206C541.353,455.381 538.775,457.735 535.812,457.659L522.924,457.327L521.84,501.176C521.545,513.121 523.826,516.811 532.121,517.025C533.01,517.048 534.643,516.938 535.384,516.957C538.647,516.89 541.25,519.529 541.168,522.856C541.093,525.88 538.811,528.242 535.985,528.623C534.352,528.732 532.422,528.834 530.645,528.788C513.164,528.338 508.686,517.632 509.078,501.755L510.184,456.999L503.666,456.831C500.703,456.755 498.245,454.271 498.323,451.096C498.402,447.921 500.983,445.415 503.946,445.491ZM585.261,520.323L580.915,418.174C580.754,414.396 583.587,411.243 587.288,411.079C590.989,410.915 594.078,413.806 594.239,417.583L598.347,514.142L632.546,512.626C635.803,512.482 638.731,515.077 638.879,518.553C639.021,521.877 636.33,524.873 633.073,525.017L594.581,526.723L594.684,525.659L592.212,526.828C588.511,526.992 585.415,523.95 585.261,520.323ZM643.548,490.695L642.366,477.136C640.303,453.483 649.919,440.917 667.631,439.308C685.786,437.659 697.13,448.321 699.192,471.973L700.375,485.533C702.437,509.185 692.969,521.738 674.961,523.374C656.954,525.009 645.61,514.348 643.548,490.695ZM654.846,475.243L656.16,490.308C657.5,505.675 663.496,513.026 673.976,512.075C684.456,511.123 689.086,502.806 687.747,487.439L686.433,472.373C685.093,457.006 679.096,449.655 668.617,450.607C658.137,451.559 653.506,459.876 654.846,475.243ZM755.753,507.122L755.267,503.526C752.154,510.377 746.347,515.011 737.393,516.271C721.685,518.481 714.144,509.159 712.424,496.423C710.218,480.092 718.48,470.379 739.032,467.487L750.188,465.918L749.682,462.172C747.882,448.837 744.162,442.337 730.216,444.299C723.61,445.228 719.55,448.395 716.123,450.709C715.596,451.241 714.903,451.644 714.022,451.768C710.793,452.223 708.267,450.135 707.842,446.989C707.559,444.891 708.49,442.928 709.817,441.672C714.155,437.245 720.964,433.386 731.239,431.94C751.204,429.131 759.15,437.021 762.206,459.646L768.378,505.346C768.863,508.942 766.459,512.181 762.935,512.677C759.412,513.173 756.239,510.718 755.753,507.122ZM753.042,487.044L751.625,476.556L739.734,478.229C727.11,480.005 723.632,484.159 725.008,494.348C726.06,502.139 729.897,506.18 738.264,505.002C745.751,503.949 753.78,499.155 753.042,487.044ZM788.975,501.659L777.675,437.959L774.176,438.606C771.259,439.145 768.358,437.222 767.804,434.096C767.249,430.971 769.279,427.982 772.196,427.443L775.695,426.797L774.19,418.313C771.524,403.281 776.158,391.204 793.656,387.97C794.822,387.755 795.989,387.539 797.062,387.648C799.792,387.758 802.031,389.343 802.586,392.468C803.167,395.742 801.495,398.203 798.751,398.864C797.756,399.202 796.59,399.417 795.132,399.687C787.404,401.115 784.895,406.497 786.743,416.916L788.089,424.506L800.338,422.242C803.254,421.703 806.182,423.775 806.736,426.901C807.291,430.026 805.234,432.866 802.318,433.405L790.07,435.668L801.37,499.368C802.003,502.94 799.734,506.28 796.235,506.927C792.735,507.573 789.609,505.231 788.975,501.659Z" style="fill:rgb(230,180,121);"/>
            </g>
        </g>
        <g transform="matrix(0.843538,0,0,0.826439,52.5483,211.72)">
            <path d="M859.141,500.181L857.444,492.726C793.957,507.186 729.109,517.236 664.697,522.597C593.815,528.499 522.662,528.795 453.214,523.476C383.527,518.144 314.726,507.09 248.721,490.62L246.871,498.039C313.29,514.612 382.518,525.735 452.63,531.1C485.731,533.635 519.21,534.901 552.868,534.901C590.237,534.901 627.827,533.339 665.332,530.216C730.1,524.826 795.307,514.721 859.141,500.181Z" style="fill:rgb(107,54,32);fill-rule:nonzero;"/>
        </g>
    </g>
</svg>
